<?xml version="1.0" encoding="UTF-8"?>
<svg version="1.1" xmlns="http://www.w3.org/2000/svg" width="360" height="360">
<path d="M0 0 C5.83846256 3.02735096 8.81325796 5.6451136 11.375 11.75 C11.73576355 15.0151062 11.73576355 15.0151062 11.71557617 18.58154297 C11.71623329 19.56309105 11.71623329 19.56309105 11.71690369 20.56446838 C11.71482915 22.7073549 11.69156327 24.84943926 11.66796875 26.9921875 C11.662368 28.48576429 11.65810016 29.97934662 11.65510559 31.47293091 C11.64369441 35.38899156 11.61425991 39.30471424 11.58099365 43.22064209 C11.55021194 47.22256906 11.53658301 51.22455106 11.52148438 55.2265625 C11.48938612 63.0678628 11.43823553 70.90888926 11.375 78.75 C6.425 79.74 6.425 79.74 1.375 80.75 C1.045 95.93 0.715 111.11 0.375 126.75 C-2.595 127.08 -5.565 127.41 -8.625 127.75 C-12.78898835 129.73285159 -15.0642307 130.90884605 -17.625 134.75 C-18.07390509 138.26642319 -18.0718255 140.06114402 -16.125 143.0625 C-12.70546978 145.3706829 -9.67531809 146.04133867 -5.625 145.75 C-1.06580989 144.56224983 2.34368714 143.34078426 4.96679688 139.29467773 C6.82318529 134.62184429 6.85252836 130.5230995 6.88671875 125.5390625 C6.90466995 124.57092621 6.92262115 123.60278992 6.94111633 122.60531616 C6.99507795 119.52858773 7.02906989 116.4520132 7.0625 113.375 C7.09568553 111.28253074 7.13017633 109.19008174 7.16601562 107.09765625 C7.25079646 101.98188211 7.31767528 96.86615249 7.375 91.75 C9.355 91.255 9.355 91.255 11.375 90.75 C11.46851098 105.5100643 11.53901224 120.27008929 11.58224869 135.03038979 C11.60285927 141.88413022 11.63095073 148.73768642 11.67675781 155.59130859 C11.72093924 162.2048641 11.74413508 168.81827846 11.75450897 175.43198776 C11.76190231 177.95578398 11.77633962 180.47956967 11.79792023 183.00328445 C11.82693766 186.53708829 11.83095653 190.07010019 11.82910156 193.60400391 C11.84348267 194.64841644 11.85786377 195.69282898 11.87268066 196.76889038 C11.83856857 202.77074494 11.35513991 206.17013413 7.375 210.75 C1.73434636 215.95675721 -2.73906923 216.9756235 -10.22265625 216.91796875 C-12.47787725 216.76028663 -14.4579974 216.37557812 -16.625 215.75 C-16.625 215.09 -16.625 214.43 -16.625 213.75 C-17.223125 213.481875 -17.82125 213.21375 -18.4375 212.9375 C-20.69104393 211.71414758 -22.05358036 210.77039668 -23.625 208.75 C-23.98113097 207.08805547 -24.31708308 205.421549 -24.625 203.75 C-25.285 203.42 -25.945 203.09 -26.625 202.75 C-26.61119094 177.98475857 -26.5689489 153.21970665 -26.49290943 128.45457458 C-26.45826454 116.95553468 -26.43290455 105.45661459 -26.42944336 93.95751953 C-26.42640279 83.93424854 -26.40589957 73.91119096 -26.36447543 63.8880024 C-26.34315241 58.58133545 -26.33054134 53.27497187 -26.33884621 47.96826172 C-26.3463906 42.97111119 -26.33054738 37.97457512 -26.29693985 32.97753716 C-26.28871133 31.14582568 -26.28895104 29.31405306 -26.29840279 27.48234749 C-26.37834841 10.28340361 -26.37834841 10.28340361 -20.625 3.75 C-14.2207959 -1.19215107 -7.68615885 -2.6503996 0 0 Z " fill="#9A01E3" transform="translate(163.625,72.25)"/>
<path d="M0 0 C4.98357378 2.98827074 8.76503039 6.43180991 10.640625 12.05859375 C10.74043454 14.59150531 10.78407217 17.09699491 10.78106689 19.63008118 C10.78403802 20.40836956 10.78700914 21.18665794 10.7900703 21.98853081 C10.79876393 24.60475075 10.8002661 27.22092496 10.80175781 29.8371582 C10.80638551 31.70961607 10.8114101 33.58207299 10.81680298 35.45452881 C10.82993347 40.54756644 10.83637318 45.6405909 10.84081364 50.73364282 C10.84374325 53.91454957 10.84784785 57.09545271 10.85231781 60.27635765 C10.86599431 70.22572256 10.87566028 80.17507923 10.8795197 90.12445289 C10.88400129 101.61506765 10.90155324 113.10556351 10.9305203 124.59614211 C10.95212595 133.47435701 10.96222338 142.35253843 10.96356082 151.23077935 C10.96460963 156.53506201 10.97053358 161.83923292 10.98838043 167.14348793 C11.00484183 172.13310216 11.00702599 177.12252041 10.99824142 182.1121521 C10.99747002 183.94311739 11.00182735 185.77409313 11.01169968 187.60503197 C11.02439169 190.10564041 11.01855753 192.60555184 11.00811768 195.1061554 C11.01617408 195.82980311 11.02423048 196.55345083 11.03253102 197.29902726 C10.97888777 202.79718193 9.68378958 206.88801579 5.88671875 210.921875 C5.28988281 211.40011719 4.69304687 211.87835938 4.078125 212.37109375 C3.47871094 212.86222656 2.87929687 213.35335937 2.26171875 213.859375 C-2.29026574 217.22674666 -7.85718939 217.48793596 -13.359375 217.05859375 C-19.73574694 214.24271943 -23.8159646 210.57469821 -26.359375 204.05859375 C-26.78210317 200.31047221 -26.73852144 196.58907264 -26.69995117 192.82080078 C-26.70060829 191.13699562 -26.70060829 191.13699562 -26.70127869 189.41917419 C-26.69919286 185.71807309 -26.67587066 182.01742798 -26.65234375 178.31640625 C-26.64674709 175.74665576 -26.64247732 173.17690206 -26.63948059 170.60714722 C-26.62920631 164.54050583 -26.6055751 158.47405192 -26.57543212 152.40748107 C-26.54185024 145.49818569 -26.52539262 138.58888235 -26.51034582 131.67952561 C-26.47902427 117.47246094 -26.4262875 103.26553314 -26.359375 89.05859375 C-23.29866566 88.38352309 -20.2355541 87.72004453 -17.171875 87.05859375 C-16.30755859 86.8678125 -15.44324219 86.67703125 -14.55273438 86.48046875 C-13.71162109 86.3 -12.87050781 86.11953125 -12.00390625 85.93359375 C-11.23409424 85.76601562 -10.46428223 85.5984375 -9.67114258 85.42578125 C-7.359375 85.05859375 -7.359375 85.05859375 -2.359375 85.05859375 C-2.359375 95.94859375 -2.359375 106.83859375 -2.359375 118.05859375 C-8.299375 119.04859375 -8.299375 119.04859375 -14.359375 120.05859375 C-17.32561481 121.91976383 -18.8165903 122.97302435 -20.359375 126.05859375 C-20.80020492 130.25514464 -20.80020492 130.25514464 -18.984375 133.87109375 C-14.59334789 137.07992125 -9.59683932 136.59785312 -4.359375 136.05859375 C-0.20777949 134.0192135 1.96901386 132.33696336 3.640625 128.05859375 C3.96650063 125.3120025 3.96650063 125.3120025 3.95947266 122.28027344 C3.97934235 121.11937195 3.99921204 119.95847046 4.01968384 118.76239014 C4.03701065 116.89033905 4.03701065 116.89033905 4.0546875 114.98046875 C4.07405365 113.69875793 4.0934198 112.41704712 4.1133728 111.09649658 C4.16463127 107.6968501 4.20429029 104.2971641 4.24151611 100.89733887 C4.28159541 97.42494988 4.33266978 93.95272442 4.3828125 90.48046875 C4.47949713 83.67329666 4.56392565 76.86601955 4.640625 70.05859375 C3.57118652 70.32631592 2.50174805 70.59403809 1.39990234 70.86987305 C-0.0328756 71.22836089 -1.46565566 71.58684026 -2.8984375 71.9453125 C-3.95043335 72.20870422 -3.95043335 72.20870422 -5.02368164 72.47741699 C-24.01872596 77.22891827 -24.01872596 77.22891827 -26.359375 76.05859375 C-26.45227148 67.70459854 -26.52323882 59.35082104 -26.56662369 50.99643612 C-26.5874519 47.11665979 -26.61568107 43.23723821 -26.66113281 39.35766602 C-26.70476259 35.60993044 -26.72854793 31.86253495 -26.73888397 28.1145649 C-26.74624482 26.68846856 -26.76061886 25.26238972 -26.78229523 23.83643913 C-26.98620667 9.85985667 -26.98620667 9.85985667 -22.359375 4.05859375 C-15.8508526 -0.98883178 -7.95407648 -3.17372919 0 0 Z " fill="#9901E3" transform="translate(210.359375,71.94140625)"/>
<path d="M0 0 C4.36196139 3.93128672 6.71667333 8.4364331 7.1847477 14.32368088 C7.26749354 17.1933381 7.28161404 20.05639207 7.2746582 22.92724609 C7.27976913 24.01742538 7.28488007 25.10760468 7.29014587 26.2308197 C7.30402613 29.82841509 7.30308618 33.42581855 7.30078125 37.0234375 C7.30466914 39.5291857 7.30900401 42.03493324 7.31376648 44.54067993 C7.32122541 49.7911339 7.32107853 55.04153837 7.31567383 60.29199219 C7.30963721 66.34618977 7.32194095 72.40015477 7.3432439 78.45431268 C7.36303599 84.295578 7.36602743 90.13675272 7.36250877 95.97804642 C7.36302145 98.45550711 7.36824918 100.93297156 7.37832069 103.41041183 C7.3906887 106.87844384 7.38389055 110.34594107 7.37231445 113.81396484 C7.38378006 115.34163231 7.38378006 115.34163231 7.39547729 116.90016174 C7.34215863 124.14526055 6.45768898 129.91033386 1.8125 135.75 C-4.29500991 140.63600793 -9.15330247 142.66497437 -17 142 C-17.99 141.67 -18.98 141.34 -20 141 C-20 140.34 -20 139.68 -20 139 C-21.11375 138.62875 -21.11375 138.62875 -22.25 138.25 C-26.65301837 136.24862801 -29.16356327 133.42924059 -31 129 C-31.26285553 126.64045334 -31.26285553 126.64045334 -31.28088379 123.97918701 C-31.29230408 122.96713699 -31.30372437 121.95508698 -31.31549072 120.91236877 C-31.31772644 119.80787888 -31.31996216 118.70338898 -31.32226562 117.56542969 C-31.33219543 116.39751389 -31.34212524 115.22959808 -31.35235596 114.02629089 C-31.38159307 110.15812837 -31.3952023 106.29012991 -31.40625 102.421875 C-31.41172317 101.08724113 -31.41743607 99.75260821 -31.42338562 98.41797638 C-31.45072259 92.14636271 -31.47006135 85.87480112 -31.4777894 79.60313201 C-31.48674383 72.37697788 -31.5218111 65.15158172 -31.57979059 57.92565799 C-31.62311053 52.33142782 -31.64320254 46.73741021 -31.64587164 41.14301419 C-31.64796208 37.80565385 -31.66256598 34.46957186 -31.69551086 31.13228607 C-31.72967792 27.40499206 -31.72586195 23.67953615 -31.71289062 19.95214844 C-31.73132019 18.85575546 -31.74974976 17.75936249 -31.76873779 16.62974548 C-31.69028284 9.42171422 -30.18698104 5.10375997 -25 0 C-17.12312963 -5.81388051 -7.91861557 -5.49385748 0 0 Z " fill="#6F42EB" transform="translate(259,111)"/>
<path d="M0 0 C4.31633181 3.18586395 7.91120739 6.79612218 9.625 11.9375 C9.72066357 13.53536529 9.75990267 15.1369083 9.76544189 16.73762512 C9.77115204 17.72594833 9.77686218 18.71427155 9.78274536 19.73254395 C9.78386322 20.81571899 9.78498108 21.89889404 9.78613281 23.01489258 C9.79358017 24.72747505 9.79358017 24.72747505 9.80117798 26.47465515 C9.81581089 30.26045326 9.82260347 34.04620948 9.828125 37.83203125 C9.83387547 40.45895896 9.83963321 43.08588665 9.84539795 45.71281433 C9.85496859 50.5201227 9.86086583 55.32742202 9.8638947 60.13473874 C9.86837377 67.20446619 9.88591571 74.27400014 9.9148953 81.34366876 C9.93914055 87.47164898 9.94684019 93.59954947 9.94857025 99.7275753 C9.95159909 102.3322931 9.95963535 104.93701003 9.97275543 107.54169655 C9.98979839 111.18525498 9.98793963 114.82834177 9.98144531 118.47192383 C9.99526749 120.08757736 9.99526749 120.08757736 10.0093689 121.73587036 C9.96872044 129.01124507 8.52235887 133.11856683 4.4375 139.1875 C0.34573713 143.1883348 -3.36536767 143.90447896 -8.8671875 143.96484375 C-14.46968805 143.63278065 -19.09307727 142.6870545 -23.375 138.9375 C-28.36228752 132.41617311 -29.09643901 126.43507228 -29.00610352 118.42602539 C-29.01325882 117.30935989 -29.02041412 116.1926944 -29.02778625 115.04219055 C-29.04461246 111.37275536 -29.02530312 107.70455243 -29.00390625 104.03515625 C-29.00473555 101.47122599 -29.00719726 98.90729578 -29.01121521 96.34336853 C-29.01406918 90.97783958 -28.99994687 85.61276122 -28.97192383 80.24731445 C-28.93989354 74.067453 -28.93988518 67.88822303 -28.9571386 61.70831686 C-28.97307249 55.73509741 -28.96612485 49.76216877 -28.94920158 43.78893852 C-28.94403607 41.26011099 -28.94448166 38.73126531 -28.95074654 36.20244026 C-28.95622719 32.66069216 -28.93572968 29.1199971 -28.90844727 25.57836914 C-28.91497314 24.54377563 -28.92149902 23.50918213 -28.92822266 22.4432373 C-28.84099698 15.74743232 -27.86304011 9.76574939 -24.375 3.9375 C-17.4679931 -2.21335494 -8.60403431 -2.70867747 0 0 Z " fill="#7932E9" transform="translate(121.375,109.0625)"/>
<path d="M0 0 C6.18529813 0.58907601 10.00120746 2.89016343 14.25 7.375 C18.40713881 13.61070821 18.2921977 19.68824859 18.2746582 26.92724609 C18.2823246 28.56251503 18.2823246 28.56251503 18.29014587 30.2308197 C18.30402613 33.82841509 18.30308618 37.42581855 18.30078125 41.0234375 C18.30466914 43.5291857 18.30900401 46.03493324 18.31376648 48.54067993 C18.32122541 53.7911339 18.32107853 59.04153837 18.31567383 64.29199219 C18.30963721 70.34618977 18.32194095 76.40015477 18.3432439 82.45431268 C18.36303599 88.295578 18.36602743 94.13675272 18.36250877 99.97804642 C18.36302145 102.45550711 18.36824918 104.93297156 18.37832069 107.41041183 C18.3906887 110.87844384 18.38389055 114.34594107 18.37231445 117.81396484 C18.38378006 119.34163231 18.38378006 119.34163231 18.39547729 120.90016174 C18.34215863 128.14526055 17.45768898 133.91033386 12.8125 139.75 C9.49746935 142.40202452 6.06822564 144.68931643 2 146 C1.01 145.67 0.02 145.34 -1 145 C-1.02333553 126.38965958 -1.0409824 107.77932211 -1.05181217 89.16897011 C-1.05697373 80.52833188 -1.06401379 71.88770272 -1.07543945 63.24707031 C-1.08539054 55.71801001 -1.09185445 48.18895628 -1.09408849 40.65988958 C-1.09539488 36.67141047 -1.09847618 32.68295017 -1.10573006 28.69447708 C-1.11249696 24.94351828 -1.11461558 21.19258611 -1.11310768 17.44162178 C-1.11338371 16.06211134 -1.11538487 14.68260004 -1.11920547 13.30309486 C-1.12415308 11.42518374 -1.12239512 9.54725846 -1.12025452 7.66934204 C-1.12117631 6.61665445 -1.1220981 5.56396687 -1.12304783 4.47937965 C-1 2 -1 2 0 0 Z " fill="#1CC6FA" transform="translate(248,107)"/>
<path d="M0 0 C5.21285484 3.67966224 7.54996947 7.12622238 9.1875 13.25 C9.4765486 16.34273309 9.49164685 19.41871999 9.48828125 22.5234375 C9.49256638 23.40601227 9.4968515 24.28858704 9.50126648 25.19790649 C9.50699028 27.05868678 9.50752447 28.91948943 9.50317383 30.78027344 C9.50001772 33.60911732 9.52348387 36.43691045 9.54882812 39.265625 C9.55110189 41.08072786 9.55180426 42.8958335 9.55078125 44.7109375 C9.559991 45.54764984 9.56920074 46.38436218 9.57868958 47.24642944 C9.53022922 53.47732659 8.62993221 59.23983536 4.57421875 64.23828125 C-4.47234655 71.28836317 -4.47234655 71.28836317 -10.625 71.1875 C-12.02993586 70.91886982 -13.42646977 70.60345033 -14.8125 70.25 C-15.95138672 69.97929687 -15.95138672 69.97929687 -17.11328125 69.703125 C-21.95572275 68.1079678 -24.53971911 65.8764758 -27.0390625 61.4375 C-30.98405573 53.09617427 -30.71471073 44.54710049 -30.59472656 35.4675293 C-30.56243391 32.55654211 -30.59459922 29.65105722 -30.6328125 26.74023438 C-30.67027805 10.01930725 -30.67027805 10.01930725 -25.45263672 3.71362305 C-18.06709355 -2.87707825 -8.93799942 -4.75794366 0 0 Z " fill="#02EDFE" transform="translate(301.8125,145.75)"/>
<path d="M0 0 C3.68181996 2.633524 5.92493569 6.10653208 7.6875 10.20703125 C7.94819641 12.39401245 7.94819641 12.39401245 7.9621582 14.78857422 C7.97645622 16.14050369 7.97645622 16.14050369 7.99104309 17.51974487 C7.99013168 18.48647125 7.98922028 19.45319763 7.98828125 20.44921875 C7.99256638 21.45034698 7.9968515 22.45147522 8.00126648 23.48294067 C8.00700585 25.59945927 8.00751294 27.7159976 8.00317383 29.83251953 C8.00001842 33.06316998 8.02346257 36.29290054 8.04882812 39.5234375 C8.05110167 41.5820301 8.05180436 43.64062515 8.05078125 45.69921875 C8.059991 46.66189667 8.06920074 47.62457458 8.07868958 48.61642456 C8.03636471 54.78353723 7.28014529 59.20366987 3.109375 64.03515625 C-1.59885995 68.03935607 -5.5512276 70.4321585 -11.98828125 70.046875 C-18.25011157 69.17411651 -22.03838633 67.89813162 -26.3125 63.20703125 C-30.42250835 57.35166394 -30.92773139 52.83993127 -30.9140625 45.77734375 C-30.92263275 44.78757538 -30.931203 43.79780701 -30.94003296 42.77804565 C-30.9514771 40.69206795 -30.95255137 38.60601047 -30.94384766 36.52001953 C-30.93753156 33.3478822 -30.98446849 30.17948863 -31.03515625 27.0078125 C-31.0397036 24.97266091 -31.04110859 22.93749939 -31.0390625 20.90234375 C-31.05748199 19.96456085 -31.07590149 19.02677795 -31.09487915 18.06057739 C-30.99809509 11.08641341 -28.98670143 6.41793189 -24.3125 1.20703125 C-16.93473591 -4.39439666 -7.96891988 -4.54678292 0 0 Z " fill="#01EDFE" transform="translate(78.3125,146.79296875)"/>
<path d="M0 0 C1.02123968 13.15700752 1.21299281 26.27734729 1.31640625 39.46875 C1.33705763 41.72009591 1.35805567 43.97143867 1.37937927 46.22277832 C1.423049 50.92258877 1.46399793 55.62241155 1.50268555 60.32226562 C1.55169136 66.27424466 1.60527048 72.22617024 1.66066074 78.17809296 C1.71412404 83.94163162 1.76539057 89.70518923 1.81640625 95.46875 C1.82596407 96.53214096 1.83552189 97.59553192 1.84536934 98.69114685 C1.97900058 113.79441839 2.02426057 128.89615348 2 144 C3.65 144 5.3 144 7 144 C7 144.33 7 144.66 7 145 C0.56721583 144.74113545 -5.01323013 144.36012234 -10 140 C-14.98728752 133.47867311 -15.72143901 127.49757228 -15.63110352 119.48852539 C-15.63825882 118.37185989 -15.64541412 117.2551944 -15.65278625 116.10469055 C-15.66961246 112.43525536 -15.65030312 108.76705243 -15.62890625 105.09765625 C-15.62973555 102.53372599 -15.63219726 99.96979578 -15.63621521 97.40586853 C-15.63906918 92.04033958 -15.62494687 86.67526122 -15.59692383 81.30981445 C-15.56489354 75.129953 -15.56488518 68.95072303 -15.5821386 62.77081686 C-15.59807249 56.79759741 -15.59112485 50.82466877 -15.57420158 44.85143852 C-15.56903607 42.32261099 -15.56948166 39.79376531 -15.57574654 37.26494026 C-15.58122719 33.72319216 -15.56072968 30.1824971 -15.53344727 26.64086914 C-15.53997314 25.60627563 -15.54649902 24.57168213 -15.55322266 23.5057373 C-15.46470676 16.71088977 -14.27858746 11.0132325 -11 5 C-8.7109375 2.9296875 -8.7109375 2.9296875 -6.375 1.875 C-5.59898438 1.50117187 -4.82296875 1.12734375 -4.0234375 0.7421875 C-2 0 -2 0 0 0 Z " fill="#1FC1FA" transform="translate(108,108)"/>
<path d="M0 0 C5.875 0.875 5.875 0.875 7 2 C7.09646028 3.83494486 7.12187344 5.67364587 7.12025452 7.51112366 C7.12162918 8.7073082 7.12300385 9.90349274 7.12442017 11.13592529 C7.12088057 12.47351099 7.11724575 13.81109644 7.11352539 15.14868164 C7.11324352 16.54782611 7.11340125 17.94697073 7.1139679 19.34611511 C7.11425588 23.15586459 7.10835898 26.96558286 7.10139394 30.77532506 C7.09516059 34.75251309 7.09455662 38.72970176 7.09336853 42.70689392 C7.09025516 50.24338539 7.08204169 57.77986243 7.07201904 65.31634754 C7.06085808 73.89419828 7.0553475 82.4720497 7.05032361 91.0499059 C7.03985908 108.69994546 7.02225953 126.34997157 7 144 C3.535 144.99 3.535 144.99 0 146 C-1.74605845 144.25394155 -1.12613221 141.83785549 -1.12698364 139.46437073 C-1.12980347 138.26266235 -1.13262329 137.06095398 -1.13552856 135.8228302 C-1.13358396 134.47897324 -1.13153577 133.13511643 -1.12939453 131.79125977 C-1.13074855 130.38550776 -1.13252849 128.9797561 -1.13470459 127.57400513 C-1.13927922 123.74553097 -1.13748914 119.91708363 -1.1343255 116.08860898 C-1.13180155 112.08966577 -1.13413959 108.09072492 -1.13571167 104.09178162 C-1.13753347 97.37392767 -1.13512699 90.6560847 -1.13037109 83.93823242 C-1.12493066 76.1635168 -1.12668949 68.38882742 -1.1321975 60.61411244 C-1.13673096 53.94914575 -1.13737797 47.28418697 -1.13475883 40.61921924 C-1.13319706 36.63411239 -1.13299953 32.64901788 -1.13629532 28.66391182 C-1.13917732 24.91703815 -1.13719224 21.17019839 -1.13140106 17.4233284 C-1.13007515 16.04543171 -1.13046475 14.66753218 -1.13266373 13.28963661 C-1.13538182 11.41396306 -1.13137462 9.5382833 -1.12698364 7.66261292 C-1.12660662 6.61122415 -1.12622959 5.55983538 -1.12584114 4.47658634 C-1 2 -1 2 0 0 Z " fill="#3A95F5" transform="translate(248,107)"/>
<path d="M0 0 C2.31 0 4.62 0 7 0 C7.93258962 4.75840657 8.16819906 9.39572721 8.20532227 14.22875977 C8.21522186 15.0351741 8.22512146 15.84158844 8.23532104 16.67243958 C8.26692024 19.34539901 8.29177197 22.01837422 8.31640625 24.69140625 C8.33706003 26.59285342 8.3580581 28.49429689 8.37937927 30.39573669 C8.42338044 34.40808738 8.46423182 38.42045371 8.50268555 42.43286133 C8.55063977 47.42733314 8.60452278 52.42171563 8.66065407 57.41610146 C8.97169698 85.2779962 9.05726621 113.13652945 9 141 C9.66 141 10.32 141 11 141 C11 141.99 11 142.98 11 144 C7.52176885 145.15941038 5.54104422 144.70820884 2 144 C1.24395875 134.95623286 0.88700625 126.01782655 0.96875 116.9453125 C0.98015073 114.30238997 0.98978544 111.65953457 0.99609375 109.01660156 C0.99795937 108.31054968 0.99982498 107.6044978 1.00174713 106.8770504 C1.01740396 97.33143778 0.89468145 87.78697116 0.78125 78.2421875 C0.76463318 76.82122646 0.76463318 76.82122646 0.74768066 75.37155914 C0.6791982 69.52970508 0.60829821 63.68788272 0.53643799 57.84606934 C0.43961729 49.95153365 0.3456692 42.0569636 0.25218201 34.16238785 C0.21966791 31.44393237 0.18614298 28.72549085 0.15246582 26.00704956 C0.04707616 17.33760191 -0.0342974 8.67030224 0 0 Z " fill="#5866EF" transform="translate(108,108)"/>
<path d="M0 0 C0.33 0 0.66 0 1 0 C1.33 44.22 1.66 88.44 2 134 C-1 134 -1 134 -2.5625 132.75 C-5.43080163 129.25815453 -6.25043872 126.45747091 -6.27415466 121.95899963 C-6.28412979 120.94261414 -6.29410492 119.92622864 -6.30438232 118.87904358 C-6.305047 117.76984055 -6.30571167 116.66063751 -6.30639648 115.51782227 C-6.31472 114.34508759 -6.32304352 113.17235291 -6.33161926 111.96408081 C-6.35158366 108.75124231 -6.36235914 105.53855412 -6.36744571 102.3256619 C-6.37109179 100.31748343 -6.37733308 98.3093298 -6.3844471 96.30116081 C-6.40892982 89.29280377 -6.42199143 82.28452066 -6.42553711 75.27612305 C-6.42917397 68.74691473 -6.45908249 62.21817603 -6.50094169 55.68911129 C-6.53564243 50.07964073 -6.55108548 44.47032588 -6.55178314 38.86074871 C-6.5525759 35.51200115 -6.56131293 32.16373239 -6.58978081 28.8150959 C-6.6165778 25.08016936 -6.61190343 21.34654522 -6.59936523 17.61157227 C-6.61419952 16.50439346 -6.62903381 15.39721466 -6.64431763 14.25648499 C-6.5643915 5.91317023 -6.5643915 5.91317023 -3.52503967 2.83677673 C-2.69177658 2.23064041 -1.85851349 1.62450409 -1 1 C-0.67 0.67 -0.34 0.34 0 0 Z " fill="#8421E7" transform="translate(234,113)"/>
<path d="M0 0 C2.89696854 0.36982577 5.37621929 0.68810965 8 2 C8 48.53 8 95.06 8 143 C6.68 143 5.36 143 4 143 C4 142.34 4 141.68 4 141 C3.34 141 2.68 141 2 141 C1.84197948 135.37528231 1.69887036 129.75027725 1.5625 124.125 C1.54010254 123.20291748 1.51770508 122.28083496 1.49462891 121.33081055 C1.11580496 105.27109335 0.90958281 89.21154196 0.74609375 73.1484375 C0.73055041 71.64065924 0.73055041 71.64065924 0.71469307 70.10242081 C0.60873182 59.80376335 0.50766 49.50508861 0.41948795 39.20626259 C0.38494731 35.27132683 0.34669544 31.33643252 0.30768013 27.40153885 C0.2901842 25.5428688 0.2744259 23.6841815 0.26048088 21.82548141 C0.24110178 19.25533856 0.21592713 16.68531252 0.18945312 14.11523438 C0.1852665 13.36225634 0.18107988 12.6092783 0.1767664 11.83348274 C0.13207827 8.08853151 -0.24220338 4.65902545 -1 1 C-0.67 0.67 -0.34 0.34 0 0 Z " fill="#6256ED" transform="translate(115,108)"/>
<path d="M0 0 C1.02123968 13.15700752 1.21299281 26.27734729 1.31640625 39.46875 C1.33705763 41.72009591 1.35805567 43.97143867 1.37937927 46.22277832 C1.423049 50.92258877 1.46399793 55.62241155 1.50268555 60.32226562 C1.55169136 66.27424466 1.60527048 72.22617024 1.66066074 78.17809296 C1.71412404 83.94163162 1.76539057 89.70518923 1.81640625 95.46875 C1.83074298 97.06383644 1.83074298 97.06383644 1.84536934 98.69114685 C1.97900058 113.79441839 2.02426057 128.89615348 2 144 C3.65 144 5.3 144 7 144 C7 144.33 7 144.66 7 145 C5.35333797 144.8864371 3.70763918 144.75882619 2.0625 144.625 C1.14597656 144.55539063 0.22945313 144.48578125 -0.71484375 144.4140625 C-1.46894531 144.27742187 -2.22304687 144.14078125 -3 144 C-4.7378889 140.5242222 -4.22561093 136.48643126 -4.28125 132.65625 C-4.29938751 131.66019241 -4.31752502 130.66413483 -4.33621216 129.63789368 C-4.39601076 126.25866293 -4.4482761 122.87936343 -4.5 119.5 C-4.53940899 117.11026784 -4.57896367 114.72053808 -4.61865234 112.33081055 C-4.7425219 104.69400307 -4.854368 97.05704727 -4.96476746 89.42003632 C-5.00159106 86.89071379 -5.03910056 84.36140217 -5.07678223 81.83209229 C-5.242633 70.68780925 -5.40065673 59.54344843 -5.54956055 48.39892578 C-5.59944283 44.6711924 -5.65150341 40.94349888 -5.70532227 37.21582031 C-5.76914788 32.77532003 -5.82764818 28.33477985 -5.8821373 23.8941555 C-5.90325432 22.24077146 -5.92616695 20.58740928 -5.95096207 18.93407631 C-5.98474264 16.65896267 -6.01199477 14.38386085 -6.03759766 12.10864258 C-6.05456696 10.8266951 -6.07153625 9.54474762 -6.08901978 8.22395325 C-5.95161126 3.24754634 -5.95161126 3.24754634 -5 1 C-2 0 -2 0 0 0 Z " fill="#3D90F4" transform="translate(108,108)"/>
<path d="M0 0 C1.65 0 3.3 0 5 0 C4.67 47.85 4.34 95.7 4 145 C-1 146 -1 146 -4 144 C-3.34 144 -2.68 144 -2 144 C-2.00523682 142.78417236 -2.01047363 141.56834473 -2.01586914 140.31567383 C-2.03399624 135.79631285 -2.04546021 131.27695508 -2.05493164 126.75756836 C-2.05995422 124.80313577 -2.06677349 122.84870694 -2.07543945 120.89428711 C-2.08759589 118.08185907 -2.09324913 115.26948081 -2.09765625 112.45703125 C-2.10281754 111.58601273 -2.10797882 110.7149942 -2.11329651 109.81758118 C-2.11340981 108.58687141 -2.11340981 108.58687141 -2.11352539 107.33129883 C-2.115746 106.61404129 -2.11796661 105.89678375 -2.12025452 105.15779114 C-2 103 -2 103 -1.49790955 100.56187439 C-0.9728021 97.86005971 -0.89455774 95.42914164 -0.91992188 92.67871094 C-0.92576294 91.62145813 -0.931604 90.56420532 -0.93762207 89.47491455 C-0.94789429 88.3230365 -0.9581665 87.17115845 -0.96875 85.984375 C-0.98004685 83.44597232 -0.98904468 80.90755866 -0.99609375 78.36914062 C-0.99795937 77.69866825 -0.99982498 77.02819588 -1.00174713 76.33740616 C-1.01594147 68.20830693 -0.90075891 60.0811763 -0.78125 51.953125 C-0.77017212 51.18909866 -0.75909424 50.42507233 -0.74768066 49.63789368 C-0.67961378 44.96790942 -0.60853089 40.29797538 -0.53643799 35.62805176 C-0.47457363 31.59059909 -0.41514328 27.55311053 -0.35546875 23.515625 C-0.23927453 15.67704766 -0.12052393 7.83851209 0 0 Z " fill="#5965EF" transform="translate(243,107)"/>
<path d="M0 0 C0.99 0.33 1.98 0.66 3 1 C4.01997515 4.05992546 4.12814425 6.13464257 4.13371277 9.33834839 C4.13797775 10.44591492 4.14224274 11.55348145 4.14663696 12.6946106 C4.14618378 13.91026703 4.14573059 15.12592346 4.14526367 16.37841797 C4.14862228 17.6582959 4.1519809 18.93817383 4.15544128 20.25683594 C4.16428085 23.76928346 4.16661939 27.28170662 4.16725707 30.79416418 C4.16820652 33.72653337 4.17188526 36.65889688 4.17542917 39.59126389 C4.1835737 46.51022703 4.18601342 53.42917715 4.18530273 60.34814453 C4.18470205 67.48439097 4.19525209 74.62056179 4.2110464 81.75678909 C4.22412462 87.88426916 4.22948651 94.01172453 4.22884732 100.13921845 C4.2285924 103.79856722 4.23144027 107.45784882 4.24202538 111.11718369 C4.2535103 115.19910597 4.24895781 119.280859 4.24291992 123.36279297 C4.24853943 124.57440094 4.25415894 125.78600891 4.25994873 127.03433228 C4.253657 128.70414154 4.253657 128.70414154 4.24723816 130.40768433 C4.24778293 131.3725923 4.24832769 132.33750027 4.24888897 133.33164787 C3.98039153 136.21022344 3.19837718 138.38246639 2 141 C1.34 141 0.68 141 0 141 C0 94.47 0 47.94 0 0 Z " fill="#29AFF8" transform="translate(255,109)"/>
<path d="M0 0 C1.27615129 3.92622353 1.16677062 7.88796127 1.18945312 11.9699707 C1.19776626 12.77369047 1.20607939 13.57741024 1.21464443 14.40548515 C1.24126436 17.07889542 1.26118211 19.75231443 1.28125 22.42578125 C1.29904389 24.31220451 1.31732814 26.1986232 1.33607483 28.08503723 C1.37514567 32.08786204 1.41156784 36.09069806 1.4458313 40.09356689 C1.53435673 50.38931341 1.6402444 60.68488824 1.74609375 70.98046875 C1.75633009 71.9895932 1.76656643 72.99871765 1.77711296 74.03842163 C1.94415148 90.40307445 2.18436471 106.76367757 2.5625 123.125 C2.58473633 124.0899942 2.60697266 125.0549884 2.62988281 126.04922485 C2.74619484 131.03301062 2.86890179 136.01658179 3 141 C1.0625 140.625 1.0625 140.625 -1 140 C-2.2741925 137.45161501 -2.15249959 135.6227529 -2.18945312 132.76844788 C-2.20621094 131.65936569 -2.22296875 130.55028351 -2.24023438 129.40759277 C-2.25376953 128.18519897 -2.26730469 126.96280518 -2.28125 125.70336914 C-2.30895182 123.73405862 -2.33665388 121.76474809 -2.36436462 119.79543769 C-2.39325624 117.67510233 -2.41974221 115.5547488 -2.44555664 113.43437386 C-2.49944934 109.01846291 -2.56067581 104.6026726 -2.62304688 100.18687439 C-2.75441727 90.81215704 -2.87758632 81.43733792 -3 72.0625 C-3.13213302 61.94603335 -3.26568856 51.82959708 -3.40851593 41.7132749 C-3.47023657 37.32196386 -3.5272874 32.93062412 -3.58079529 28.53920567 C-3.60677394 26.46579062 -3.63492523 24.3924189 -3.6640625 22.31904602 C-3.69960738 19.78872451 -3.73170071 17.25835132 -3.75976562 14.72793579 C-3.77652344 13.61603378 -3.79328125 12.50413177 -3.81054688 11.35853577 C-3.82307495 10.39048539 -3.83560303 9.42243502 -3.84851074 8.42504978 C-3.90479926 5.85816052 -3.90479926 5.85816052 -5 3 C-3.35 2.01 -1.7 1.02 0 0 Z " fill="#29AEF8" transform="translate(102,110)"/>
<path d="M0 0 C0.66 0 1.32 0 2 0 C3.23242883 2.46485766 3.12581633 4.07657163 3.12698364 6.83363342 C3.13121338 8.36593849 3.13121338 8.36593849 3.13552856 9.92919922 C3.13350433 11.05479248 3.1314801 12.18038574 3.12939453 13.34008789 C3.13114685 14.52251572 3.13289917 15.70494354 3.13470459 16.92320251 C3.1383618 20.17620158 3.13748827 23.42916022 3.1343255 26.68215871 C3.13179207 30.09885191 3.134143 33.51554241 3.13571167 36.93223572 C3.13753418 42.68668094 3.13512878 48.44111336 3.13037109 54.19555664 C3.12496705 60.80722409 3.12666243 67.41886052 3.1321975 74.03052717 C3.13677295 79.72760405 3.13735657 85.4246717 3.13475883 91.12174982 C3.1332152 94.51431339 3.13294805 97.90686253 3.13629532 101.29942513 C3.14571899 115.23321314 3.09807455 129.10360433 2 143 C1.01 143.33 0.02 143.66 -1 144 C-1.02332793 125.37238885 -1.04097865 106.74478065 -1.05181217 88.11715794 C-1.05697536 79.46864395 -1.06401848 70.82013903 -1.07543945 62.17163086 C-1.08538561 54.63635421 -1.09185326 47.10108412 -1.09408849 39.56580108 C-1.09539572 35.57344148 -1.0984823 31.58110064 -1.10573006 27.58874702 C-1.1124892 23.83532902 -1.11461718 20.08193761 -1.11310768 16.3285141 C-1.11338406 14.94697106 -1.11538981 13.56542719 -1.11920547 12.18388939 C-1.12414099 10.30562855 -1.12239796 8.42735362 -1.12025452 6.54908752 C-1.12117631 5.49547814 -1.1220981 4.44186876 -1.12304783 3.35633183 C-1 1 -1 1 0 0 Z " fill="#4683F3" transform="translate(248,108)"/>
<path d="M0 0 C0.99 0 1.98 0 3 0 C3.97309641 2.91928922 4.12350964 4.76550264 4.12025452 7.80253601 C4.12162918 8.79111603 4.12300385 9.77969604 4.12442017 10.79823303 C4.12082489 11.88148361 4.11722961 12.96473419 4.11352539 14.08081055 C4.11367142 15.22241638 4.11381744 16.36402222 4.1139679 17.54022217 C4.11326993 21.32240687 4.10548291 25.10454263 4.09765625 28.88671875 C4.09579166 31.5055997 4.09436795 34.124481 4.09336853 36.74336243 C4.09025953 42.93752367 4.08205194 49.13166727 4.07201904 55.32582074 C4.06084454 62.37774885 4.05534408 69.4296778 4.05032361 76.48161256 C4.03986898 90.98775081 4.02227786 105.49387516 4 120 C2.515 120.495 2.515 120.495 1 121 C0.1968718 91.64310098 -0.09341179 62.30370495 -0.0625 32.9375 C-0.06164398 32.11848206 -0.06078796 31.29946411 -0.05990601 30.45562744 C-0.04850782 20.30372869 -0.02842035 10.15186583 0 0 Z " fill="#861FE7" transform="translate(127,118)"/>
<path d="M0 0 C1.32 0.33 2.64 0.66 4 1 C4 47.53 4 94.06 4 142 C2.68 141.67 1.36 141.34 0 141 C0 94.47 0 47.94 0 0 Z " fill="#6C46EC" transform="translate(119,109)"/>
<path d="M0 0 C0.33 0 0.66 0 1 0 C1.33 44.22 1.66 88.44 2 134 C-1 134 -1 134 -2.6875 132.625 C-4 131 -4 131 -4 129 C-3.34 129 -2.68 129 -2 129 C-2.00276538 128.03009266 -2.00276538 128.03009266 -2.00558662 127.04059124 C-2.04972905 111.31718803 -2.08283871 95.59380634 -2.10362434 79.87035656 C-2.11394294 72.26665715 -2.12801437 64.66299906 -2.15087891 57.05932617 C-2.17079498 50.43302312 -2.1837122 43.80674999 -2.18817699 37.18041784 C-2.1907874 33.67086637 -2.19693504 30.16140052 -2.21146011 26.65187645 C-2.22753229 22.73689528 -2.22798083 18.82199836 -2.22705078 14.90698242 C-2.23424133 13.7395752 -2.24143188 12.57216797 -2.24884033 11.36938477 C-2.246091 10.30507736 -2.24334167 9.24076996 -2.24050903 8.14421082 C-2.24235262 7.21780887 -2.24419621 6.29140692 -2.24609566 5.33693218 C-2 3 -2 3 0 0 Z " fill="#7B2FE9" transform="translate(234,113)"/>
<path d="M0 0 C0.0231209 13.15149024 0.04091379 26.30297569 0.05181217 39.45448208 C0.05704156 45.56056369 0.0641402 51.66663144 0.07543945 57.77270508 C0.08626637 63.66005147 0.09227642 69.54738449 0.09487724 75.43474007 C0.09673185 77.68632277 0.10035313 79.93790469 0.10573006 82.18948174 C0.11293789 85.33133427 0.11399105 88.47313083 0.11352539 91.61499023 C0.11712067 92.55581955 0.12071594 93.49664886 0.12442017 94.46598816 C0.11405216 100.88594784 0.11405216 100.88594784 -1 102 C-1.16029688 104.95529504 -1.25957328 107.88982457 -1.31640625 110.84765625 C-1.33718735 111.7340831 -1.35796844 112.62050995 -1.37937927 113.53379822 C-1.444974 116.376617 -1.50380552 119.21953117 -1.5625 122.0625 C-1.6056758 123.98503606 -1.64928978 125.90756234 -1.69335938 127.83007812 C-1.80066543 132.55328668 -1.90190451 137.27659153 -2 142 C-2.66 141.67 -3.32 141.34 -4 141 C-4.03129271 130.41667814 -4.05121441 119.83336101 -4.0625 109.25 C-4.06335602 108.45304718 -4.06421204 107.65609436 -4.06509399 106.83499146 C-4.08917606 81.38602515 -3.90511716 55.9457375 -3.5 30.5 C-3.48804218 29.74850174 -3.47608437 28.99700348 -3.46376419 28.22273254 C-3.3185344 19.14832389 -3.16427269 10.0740853 -3 1 C-1 0 -1 0 0 0 Z " fill="#6256ED" transform="translate(243,108)"/>
<path d="M0 0 C1.32 0.33 2.64 0.66 4 1 C4 47.86 4 94.72 4 143 C4.99 143.33 5.98 143.66 7 144 C5.35 144 3.7 144 2 144 C1.24395875 134.95623286 0.88700625 126.01782655 0.96875 116.9453125 C0.98015073 114.30238997 0.98978544 111.65953457 0.99609375 109.01660156 C0.99795937 108.31054968 0.99982498 107.6044978 1.00174713 106.8770504 C1.01740396 97.33143778 0.89468145 87.78697116 0.78125 78.2421875 C0.76463318 76.82122646 0.76463318 76.82122646 0.74768066 75.37155914 C0.6791982 69.52970508 0.60829821 63.68788272 0.53643799 57.84606934 C0.43961729 49.95153365 0.3456692 42.0569636 0.25218201 34.16238785 C0.21966791 31.44393237 0.18614298 28.72549085 0.15246582 26.00704956 C0.04707616 17.33760191 -0.0342974 8.67030224 0 0 Z " fill="#487FF2" transform="translate(108,108)"/>
<path d="M0 0 C0.66 0 1.32 0 2 0 C1.67 47.85 1.34 95.7 1 145 C0.34 145 -0.32 145 -1 145 C-2.01264876 137.53343085 -2.10793088 130.23721813 -2.03759766 122.70922852 C-2.02959641 121.40414841 -2.02159515 120.0990683 -2.01335144 118.75444031 C-1.99131911 115.201185 -1.96262417 111.64801321 -1.93239641 108.09481931 C-1.90157443 104.36954651 -1.87605528 100.64423662 -1.84970093 96.91893005 C-1.80464787 90.67256351 -1.75517331 84.42624355 -1.703125 78.17993164 C-1.64298429 70.9549549 -1.59025543 63.7299519 -1.54135668 56.50489098 C-1.49406799 49.54712246 -1.44124683 42.5894062 -1.38599777 35.6316967 C-1.36261378 32.67201691 -1.34124248 29.71233262 -1.32149124 26.75262642 C-1.293712 22.63002806 -1.25788142 18.50753843 -1.22119141 14.38500977 C-1.2138649 13.15334076 -1.20653839 11.92167175 -1.19898987 10.65267944 C-1.18775589 9.53543991 -1.17652191 8.41820038 -1.16494751 7.2671051 C-1.15719614 6.29247598 -1.14944477 5.31784685 -1.14145851 4.31368351 C-1 2 -1 2 0 0 Z " fill="#5073F0" transform="translate(246,107)"/>
<path d="M0 0 C0.99 0.33 1.98 0.66 3 1 C2.34 1 1.68 1 1 1 C1.01252808 1.68758392 1.02505615 2.37516785 1.03796387 3.08358765 C1.20206274 12.18056319 1.35491357 21.27770386 1.5 30.375 C1.51187725 31.11930771 1.5237545 31.86361542 1.53599167 32.63047791 C1.94498039 58.50432691 2.08949028 84.37307073 2.0625 110.25 C2.06164398 111.07666924 2.06078796 111.90333847 2.05990601 112.75505829 C2.04867621 122.83672945 2.02884691 132.91836325 2 143 C1.34 143 0.68 143 0 143 C-0.76241478 109.23403455 -1.1106321 75.47917056 -1.12338257 41.70505142 C-1.12500492 38.86638296 -1.12856903 36.02772243 -1.13256836 33.1890564 C-1.13839606 28.69406883 -1.13866518 24.19911533 -1.13431931 19.70412636 C-1.13331976 18.02952404 -1.13391648 16.35491995 -1.13615799 14.68031883 C-1.13868661 12.38563959 -1.13493765 10.09105862 -1.12939453 7.79638672 C-1.12859894 6.50207733 -1.12780334 5.20776794 -1.12698364 3.87423706 C-1 1 -1 1 0 0 Z " fill="#5072F0" transform="translate(112,108)"/>
<path d="M0 0 C0.99 0 1.98 0 3 0 C2.99777939 0.95528091 2.99555878 1.91056183 2.99327087 2.89479065 C2.81905665 60.82474532 2.81905665 60.82474532 3.4375 118.75 C3.45714813 119.90452667 3.47679626 121.05905334 3.49703979 122.24856567 C3.55295841 125.43149937 3.61632049 128.61416328 3.68359375 131.796875 C3.70031128 132.7166362 3.71702881 133.6363974 3.73425293 134.58403015 C3.7143037 138.92984129 3.7143037 138.92984129 5 143 C4.01 143 3.02 143 2 143 C0.2621111 139.5242222 0.77438907 135.48643126 0.71875 131.65625 C0.70061249 130.66019241 0.68247498 129.66413483 0.66378784 128.63789368 C0.60398924 125.25866293 0.5517239 121.87936343 0.5 118.5 C0.46059101 116.11026784 0.42103633 113.72053808 0.38134766 111.33081055 C0.2574781 103.69400307 0.145632 96.05704727 0.03523254 88.42003632 C-0.00159106 85.89071379 -0.03910056 83.36140217 -0.07678223 80.83209229 C-0.242633 69.68780925 -0.40065673 58.54344843 -0.54956055 47.39892578 C-0.59944283 43.6711924 -0.65150341 39.94349888 -0.70532227 36.21582031 C-0.76914788 31.77532003 -0.82764818 27.33477985 -0.8821373 22.8941555 C-0.90325432 21.24077146 -0.92616695 19.58740928 -0.95096207 17.93407631 C-0.98474264 15.65896267 -1.01199477 13.38386085 -1.03759766 11.10864258 C-1.05456696 9.8266951 -1.07153625 8.54474762 -1.08901978 7.22395325 C-1.016126 4.58402143 -0.79828686 2.49553373 0 0 Z " fill="#339FF6" transform="translate(103,109)"/>
<path d="M0 0 C0.66 0 1.32 0 2 0 C2 46.53 2 93.06 2 141 C1.01 140.67 0.02 140.34 -1 140 C-0.67 93.8 -0.34 47.6 0 0 Z " fill="#339FF6" transform="translate(253,110)"/>
<path d="M0 0 C0.33 0.66 0.66 1.32 1 2 C-0.28935919 3.14842923 -1.58156579 4.29366227 -2.875 5.4375 C-3.59429687 6.07558594 -4.31359375 6.71367187 -5.0546875 7.37109375 C-7 9 -7 9 -9 10 C-7.24277009 5.68679932 -4.1937832 2.0968916 0 0 Z " fill="#11DAFC" transform="translate(59,145)"/>
<path d="" fill="#2FB8F7" transform="translate(0,0)"/>
</svg>
