<svg fill="none" height="24" viewBox="0 0 24 24" width="24" xmlns="http://www.w3.org/2000/svg"><g stroke="#292d32" stroke-linecap="round" stroke-linejoin="round" stroke-width="1.5"><path d="m6.28003 22c1.72313 0 3.12-1.3969 3.12-3.12s-1.39687-3.12-3.12-3.12c-1.72312 0-3.12 1.3969-3.12 3.12s1.39688 3.12 3.12 3.12z"/><path d="m20.84 16.8001v-12.20001c0-2.6-1.63-2.96-3.28-2.51l-6.24 1.7c-1.14.31-1.91998 1.21-1.91998 2.51v2.17 1.46 8.94001"/><path d="m17.72 19.9199c1.7231 0 3.12-1.3968 3.12-3.12 0-1.7231-1.3969-3.12-3.12-3.12-1.7232 0-3.12 1.3969-3.12 3.12 0 1.7232 1.3968 3.12 3.12 3.12z"/><path d="m9.40002 9.5199 11.43998-3.12"/></g></svg>